# xmcd
#
# Track frame offsets:
#	150
#	23835
#	42515
#	71550
#	85777
#	105740
#	123000
#	144905
#	167325
#	188887
#	204362
#	219325
#
# Disc length: 3181 seconds
#
# Revision: 0
# Processed by: cddbd v1.4b42PL1 Copyright (c) Steve Scherf et al.
# Submitted via: dBpowerAMP V4.0
#
DISCID=990c6b0c
DTITLE=BOGDAN - Island of Hope
DYEAR=1995
DGENRE=Ballad
TTITLE0=Bogdan/When an Indian dies
TTITLE1=Bogdan/The Sea of words
TTITLE2=Bogdan/The Actor chronicles
TTITLE3=Bogdan/Room twenty-nine
TTITLE4=Bogdan/Island of hope
TTITLE5=Bogdan/One last bow
TTITLE6=Bogdan/Tell me now
TTITLE7=Bogdan/Warsaw's breath
TTITLE8=Bogdan/Picture on the wall
TTITLE9=Bogdan/Dark Night Story
TTITLE10=Bogdan/Simple man?
TTITLE11=Bogdan/Song to the Sea
EXTD=
EXTT0=
EXTT1=
EXTT2=
EXTT3=
EXTT4=
EXTT5=
EXTT6=
EXTT7=
EXTT8=
EXTT9=
EXTT10=
EXTT11=
PLAYORDER=
